<svg width="128" height="32" viewBox="0 0 128 32" fill="none" xmlns="http://www.w3.org/2000/svg">
<g clip-path="url(#clip0_1_1252)">
<path d="M36.5347 23.6582H32.9961V7.55811H36.5347V13.7492H43.1892V7.55811H46.7277V23.6582H43.1892V17.1948H36.5347V23.6582Z" fill="white"/>
<path d="M59.9014 18.1254C59.9014 19.8713 59.4123 21.2772 58.4099 22.3431C57.3864 23.4091 56.0292 23.9536 54.3143 23.9536C52.5995 23.9536 51.3327 23.4321 50.3078 22.3892C49.2842 21.3463 48.7725 19.9174 48.7725 18.1254V11.5497H52.2446V18.2162C52.2446 19.7575 53.0462 20.7327 54.3808 20.7327C55.6277 20.7327 56.4505 19.7575 56.4505 18.2162V11.5497H59.9V18.1254H59.9014Z" fill="white"/>
<path d="M64.9956 12.8878C66.0192 11.8218 67.2209 11.2773 68.5795 11.2773C69.9381 11.2773 70.939 11.708 71.7392 12.5694C72.5634 13.4539 72.9635 14.7013 72.9635 16.3118V23.6596H69.514V16.7655C69.514 15.4043 68.7576 14.4982 67.4442 14.4982C66.1309 14.4982 65.3081 15.4057 65.3081 16.7425V23.6582H61.8359V11.5496H64.9292L64.9956 12.8878Z" fill="white"/>
<path d="M74.3942 11.5496C75.5294 11.4819 75.9959 10.9821 75.9959 9.68998V8.30713H79.2447V11.5496H82.1825V14.5876H79.2447V18.9191C79.2447 20.1204 79.8682 20.711 81.1137 20.711C81.3582 20.711 81.7371 20.688 82.2263 20.6433V23.6596C81.5802 23.8411 80.9129 23.9319 80.2004 23.9319C78.5096 23.9319 77.3079 23.4335 76.5954 22.4352C76.0383 21.6876 75.7726 20.734 75.7726 19.6004V14.589H73.9248V11.5727L74.3928 11.5496H74.3942Z" fill="white"/>
<path d="M91.9705 15.835C91.2353 14.9505 90.3899 14.4968 89.4328 14.4968C87.8084 14.4968 86.6506 15.8119 86.6506 17.6039C86.6506 19.3958 87.6515 20.6879 89.4993 20.6879C90.4111 20.6879 91.2353 20.2572 92.0143 19.3728L94.2848 21.5047C93.0166 23.1151 91.3923 23.9304 89.389 23.9304C87.6303 23.9304 86.1402 23.3413 84.9371 22.1615C83.7581 20.9602 83.1572 19.4635 83.1572 17.6485C83.1572 15.8335 83.7581 14.3153 84.9371 13.1139C86.1162 11.9126 87.6303 11.2773 89.4102 11.2773C91.3908 11.2773 93.0152 12.071 94.2395 13.6584L91.9691 15.835H91.9705Z" fill="white"/>
<path d="M105.568 22.1399C104.343 23.3413 102.831 23.9319 101.049 23.9319C99.268 23.9319 97.7553 23.3427 96.531 22.1399C95.3294 20.9386 94.7285 19.4189 94.7285 17.6053C94.7285 15.7918 95.3294 14.2951 96.5537 13.0924C97.778 11.891 99.2694 11.2788 101.072 11.2788C102.874 11.2788 104.366 11.891 105.59 13.0924C106.815 14.2937 107.438 15.8134 107.438 17.6053C107.438 19.3973 106.815 20.9386 105.569 22.1399H105.568ZM103.943 17.6053C103.943 15.7918 102.696 14.4983 101.072 14.4983C99.4476 14.4983 98.2233 15.8134 98.2233 17.6053C98.2233 19.488 99.3811 20.6894 101.072 20.6894C102.763 20.6894 103.943 19.4189 103.943 17.6053Z" fill="white"/>
<path d="M113.187 15.6088C112.63 16.1072 112.341 16.8793 112.341 17.9438V23.6582H108.869V11.5496H111.962L112.051 13.137C112.876 11.9803 113.92 11.4142 115.167 11.4142C115.368 11.4142 115.567 11.4372 115.768 11.4819V14.9736C115.567 14.9505 115.389 14.9289 115.279 14.9289C114.411 14.9289 113.721 15.1551 113.187 15.6088Z" fill="white"/>
<path d="M126.443 12.9555C127.489 14.0891 128.001 15.495 128.001 17.1732C128.001 17.6716 127.955 18.1714 127.845 18.6929H119.61C120.055 20.1665 121.079 20.9155 122.703 20.9155C123.704 20.9155 124.707 20.5525 125.708 19.8496L127.533 22.0261C126.197 23.2966 124.506 23.9304 122.48 23.9304C120.7 23.9304 119.209 23.3413 117.984 22.1385C116.76 20.9371 116.159 19.4174 116.159 17.6039C116.159 15.7903 116.76 14.3383 117.962 13.1139C119.163 11.8895 120.61 11.2773 122.324 11.2773C124.039 11.2773 125.418 11.8449 126.441 12.9555H126.443ZM124.595 16.4256C124.572 15.0874 123.571 14.2029 122.258 14.2029C120.945 14.2029 119.966 15.0874 119.631 16.4256H124.595Z" fill="white"/>
<path d="M25.6582 2.53665C24.7703 1.47647 23.628 0.725982 22.2624 0.305365C21.9287 0.203092 21.5922 0.152675 21.2657 0.10514C21.154 0.0892948 21.0437 0.0720091 20.9334 0.0532831C20.7949 0.0302356 20.6634 0.0230332 20.5362 0.0158309C20.498 0.0129499 20.4584 0.0115095 20.4203 0.00862854C20.2478 -0.00433568 20.0894 0.0489617 19.9693 0.155556C19.883 0.231901 19.7784 0.373067 19.7657 0.606423C19.76 0.704375 19.76 0.796565 19.76 0.887314V11.554C19.76 11.6159 19.76 11.675 19.7586 11.7268C19.7501 11.8637 19.6922 12.038 19.4589 12.0826C19.3656 12.0999 19.2483 12.0999 19.1436 12.0999H17.3015C14.2224 12.1014 11.0373 12.1028 7.90441 12.0999H7.89452C6.78473 12.0999 5.71029 12.339 4.69805 12.813C2.77678 13.7104 1.38849 15.1897 0.571347 17.2107C0.282944 17.9252 0.110467 18.6497 0.058159 19.3642V19.3901C0.031298 19.7301 0.00585068 20.0816 0.00443694 20.4359C-0.00121802 21.8 -0.00121802 23.2059 0.0030232 24.6133C0.00867816 26.447 0.603863 28.0762 1.76878 29.4518C2.61986 30.4572 3.70419 31.1832 4.99352 31.6125C5.63536 31.8257 6.28144 31.9049 6.82856 31.9553C6.88369 31.9597 6.94449 31.9654 7.00952 31.9654C7.15513 31.9654 7.31489 31.9366 7.4506 31.8098C7.6457 31.6283 7.6457 31.3806 7.64711 31.1818C7.64711 30.5739 7.64711 29.9646 7.64711 29.3567V20.3812C7.64711 20.3394 7.64711 20.2991 7.64711 20.2587C7.65701 20.0412 7.77152 19.9087 7.98076 19.877C8.04579 19.8669 8.12779 19.8669 8.21544 19.8669H8.23947C9.85538 19.8669 11.4727 19.8669 13.0886 19.8669H15.6743C16.958 19.8669 18.2431 19.8655 19.5268 19.8669H19.5466C20.6323 19.8669 21.6969 19.6278 22.7091 19.1553C24.6106 18.268 25.9932 16.8059 26.816 14.808C27.1143 14.0849 27.2924 13.3517 27.3462 12.6315C27.3829 12.1331 27.4013 11.747 27.4027 11.3811V11.1391C27.4098 9.86575 27.4169 8.54772 27.4027 7.2513C27.3829 5.48241 26.7962 3.89645 25.6596 2.53809L25.6582 2.53665Z" fill="url(#paint0_linear_1_1252)"/>
<path d="M3.79521 27.6167C2.10297 23.314 1.97573 16.2485 7.08923 14.3644C8.62596 13.7983 10.2192 13.3661 11.7772 12.8605C12.4713 12.6358 13.1612 12.3952 13.8526 12.159C11.8761 12.159 9.88136 12.159 7.90637 12.1561H7.89647C6.78668 12.1561 5.71224 12.3952 4.70001 12.8692C2.77873 13.7666 1.39044 15.2459 0.5733 17.2669C0.284897 17.9814 0.112421 18.7059 0.0601122 19.4204V19.4463C0.0332511 19.7863 0.0078038 20.1378 0.00639006 20.4921C0.000735102 21.8562 0.000735102 23.2621 0.00497632 24.6695C0.0106313 26.5032 0.605816 28.1324 1.77074 29.508C2.62181 30.5135 3.70615 31.2395 4.99548 31.6687C5.59914 31.8689 6.20422 31.951 6.72872 32.0015C5.38426 30.8851 4.44695 29.2675 3.79804 27.6181L3.79521 27.6167Z" fill="url(#paint1_linear_1_1252)"/>
<path d="M27.4053 22.104C27.4053 21.558 27.4053 21.0135 27.4053 20.4676C27.4053 20.3264 27.4053 20.0628 27.206 19.8756C27.008 19.6883 26.7479 19.7056 26.6221 19.7142C24.5283 19.8583 22.7965 20.7197 21.4746 22.2725C20.7593 23.1123 20.2602 24.0832 19.9888 25.1563C19.8347 25.7642 19.7584 26.3779 19.7598 26.98C19.7626 27.9307 19.7626 28.8814 19.7626 29.8307C19.7626 30.2614 19.7626 30.6935 19.7626 31.1242C19.7626 31.3662 19.7626 31.6154 19.9605 31.8027C20.1005 31.9337 20.2631 31.964 20.4228 31.964C20.4907 31.964 20.5585 31.9582 20.6222 31.9539C22.2635 31.8243 23.6886 31.2452 24.8606 30.2325C25.918 29.3193 26.6673 28.1655 27.0858 26.8014C27.2964 26.1157 27.4039 25.4055 27.4053 24.6911C27.4053 24.246 27.4053 23.7994 27.4053 23.3543V22.1025V22.104Z" fill="url(#paint2_linear_1_1252)"/>
<path d="M0.00310744 9.21172V9.84264C0.00310744 10.3958 0.00310744 10.9489 0.00310744 11.5021C0.00310744 11.6418 0.00310744 11.9011 0.202445 12.0898C0.350887 12.2295 0.529019 12.2554 0.667565 12.2554C0.714218 12.2554 0.756631 12.2525 0.791974 12.2497C2.87865 12.1027 4.60342 11.2471 5.91961 9.70724C6.64203 8.86168 7.14815 7.88361 7.421 6.80325C7.5751 6.19538 7.65144 5.57309 7.64861 4.95369C7.64437 4.01163 7.64579 3.05372 7.64579 2.1275C7.64579 1.6968 7.64579 1.26465 7.64579 0.833955C7.64579 0.594837 7.64578 0.348517 7.44645 0.161256C7.24711 -0.0274453 6.99971 -0.00727877 6.78058 0.0114473C5.12226 0.145411 3.68307 0.737443 2.50401 1.77026C1.69818 2.47609 1.06341 3.34613 0.619498 4.3559C0.304234 5.07037 0.123275 5.75747 0.065312 6.4561C0.0342097 6.8335 0.0144174 7.22675 0.00734866 7.6272C0.000279959 8.00028 0.0016937 8.37769 0.00310744 8.74357C0.00310744 8.90058 0.00310744 9.05615 0.00310744 9.21316V9.21172Z" fill="url(#paint3_linear_1_1252)"/>
</g>
<defs>
<linearGradient id="paint0_linear_1_1252" x1="-1.65247" y1="15.9849" x2="28.5012" y2="15.9849" gradientUnits="userSpaceOnUse">
<stop stop-color="#FFBF3A"/>
<stop offset="0.26" stop-color="#FFC43C"/>
<stop offset="0.59" stop-color="#FFD443"/>
<stop offset="0.95" stop-color="#FFEE4E"/>
<stop offset="1" stop-color="#FFBF3A"/>
</linearGradient>
<linearGradient id="paint1_linear_1_1252" x1="-1.65193" y1="22.0781" x2="28.5017" y2="22.0781" gradientUnits="userSpaceOnUse">
<stop stop-color="#FFBF3A"/>
<stop offset="0.19" stop-color="#FFD142"/>
<stop offset="0.44" stop-color="#FFE349"/>
<stop offset="0.7" stop-color="#FFEE4E"/>
<stop offset="1" stop-color="#FFBF3A"/>
</linearGradient>
<linearGradient id="paint2_linear_1_1252" x1="-1.65272" y1="25.8377" x2="28.5009" y2="25.8377" gradientUnits="userSpaceOnUse">
<stop stop-color="#FFBF3A"/>
<stop offset="1" stop-color="#FFBF3A"/>
</linearGradient>
<linearGradient id="paint3_linear_1_1252" x1="0.000279959" y1="6.12768" x2="28.5013" y2="6.12768" gradientUnits="userSpaceOnUse">
<stop stop-color="#FFBF3A"/>
<stop offset="0.5625" stop-color="#FFBF3A"/>
</linearGradient>
<clipPath id="clip0_1_1252">
<rect width="128" height="32" fill="white"/>
</clipPath>
</defs>
</svg>
